JUST TEENS PORN ANGEL FCUKED-SILVERDUST-{HKRG}
File size                        : 509 MiB
Duration                         : 22mn 39s
Overall bit rate mode            : Variable
Overall bit rate                 : 3 139 Kbps
Maximum Overall bit rate         : 6 154 Kbps
Encoded date                     : UTC 2008-07-12 00:26:14.231

Video
ID                               : 2
Format                           : VC-1
Format profile                   : MP@HL
Codec ID                         : WMV3
Codec ID/Info                    : Windows Media Video 9
Codec ID/Hint                    : WMV3
Description of the codec         : Windows Media Video 9 - Professional
Duration                         : 22mn 39s
Bit rate mode                    : Variable
Bit rate                         : 3 000 Kbps
Width                            : 1 280 pixels
Height                           : 720 pixels
Display aspect ratio             : 1.897
Frame rate                       : 25.000 fps
Bit depth                        : 8 bits
Scan type                        : Progressive
Compression mode                 : Lossy
Bits/(Pixel*Frame)               : 0.130
Stream size                      : 486 MiB (96%)

Audio
ID                               : 1
Format                           : WMA
Format version                   : Version 2
Codec ID                         : 161
Codec ID/Info                    : Windows Media Audio
Description of the codec         : Windows Media Audio 9.2 - 127 kbps, 48 kHz, stereo Low Delay 2-pass CBR
Duration                         : 22mn 39s
Bit rate mode                    : Constant
Bit rate                         : 127 Kbps
Channel(s)                       : 2 channels
Sampling rate                    : 48.0 KHz
Bit depth                        : 16 bits
Stream size                      : 20.6 MiB (4%) 
http://img3.immage.de/1203image48233390.jpg



[img]http://img3.immage.de/1203image48233390.jpg[/img] 
http://www.leetleech.org/images/58747623395511418358.jpg
    	http://www.leetleech.org/images/76105981895018051028.png
    	http://www.leetleech.org/images/84902049181981857623.png
    	http://www.leetleech.org/images/91275190877673904290.png

NJOI